<svg width="40" height="40" viewBox="0 0 40 40" fill="none" xmlns="http://www.w3.org/2000/svg">
<path d="M39.9816 25.0969L39.5115 21.159C39.4609 20.7357 39.0803 20.4311 38.6563 20.4744C37.1026 20.6333 35.6876 19.5005 35.5025 17.9496C35.3173 16.3986 36.4259 14.9648 37.9734 14.7534C38.3959 14.6957 38.694 14.3101 38.6434 13.8868L38.1734 9.94888C38.0922 9.26857 37.7509 8.6606 37.2125 8.23693C36.674 7.81333 36.0028 7.62482 35.3226 7.70591L7.88172 10.9813C7.20828 11.0617 6.60602 11.3972 6.18297 11.9263H2.565C1.15062 11.9265 0 13.0771 0 14.4914V18.4572C0 18.8836 0.341797 19.2312 0.767969 19.2384C2.32977 19.2649 3.60039 20.5572 3.60039 22.1192C3.60039 23.6812 2.32977 24.9735 0.767969 25.0001C0.341797 25.0072 0 25.3548 0 25.7811V29.7469C0 31.1612 1.15062 32.3119 2.565 32.3119H24.5753H30.2006C31.615 32.3119 32.7656 31.1612 32.7656 29.7469V28.5413L37.7387 27.9477C38.419 27.8665 39.027 27.5253 39.4506 26.9868C39.8741 26.4483 40.0627 25.7771 39.9816 25.0969ZM31.2031 27.1542V28.7278V29.7469C31.2031 30.2996 30.7534 30.7494 30.2006 30.7494H25.3566V29.4257V29.2846C25.3566 28.8531 25.0068 28.5033 24.5753 28.5033C24.1438 28.5033 23.7941 28.8531 23.7941 29.2846V29.6122V30.7493H14.2673H8.48555H2.565C2.01227 30.7493 1.5625 30.2996 1.5625 29.7468V26.483C2.44023 26.315 3.24641 25.8858 3.88586 25.2363C4.70937 24.4 5.16289 23.2929 5.16289 22.1191C5.16289 20.9453 4.70937 19.8383 3.88586 19.0019C3.24633 18.3525 2.44023 17.9233 1.5625 17.7552V14.4914C1.5625 13.9386 2.01219 13.4889 2.565 13.4889H5.62125H7.185H23.7941V23.0022C23.7941 23.4337 24.1439 23.7835 24.5754 23.7835C25.0069 23.7835 25.3566 23.4337 25.3566 23.0022V13.489H30.2007C30.7534 13.489 31.2032 13.9386 31.2032 14.4915V17.7553C30.3255 17.9233 29.5193 18.3526 28.8798 19.002C28.0563 19.8383 27.6028 20.9454 27.6028 22.1192C27.6028 23.293 28.0563 24.4001 28.8798 25.2364C29.5193 25.8858 30.3255 26.3151 31.2032 26.4831V27.1542H31.2031ZM38.2226 26.0208C38.057 26.2312 37.8194 26.3646 37.5535 26.3963L32.7656 26.9678V25.7811C32.7656 25.3547 32.4238 25.0072 31.9977 24.9999C30.4359 24.9734 29.1652 23.6811 29.1652 22.119C29.1652 20.557 30.4359 19.2647 31.9977 19.2383C32.4239 19.231 32.7656 18.8834 32.7656 18.4571V14.4912C32.7656 13.0769 31.615 11.9262 30.2006 11.9262H24.5753H13.1481L35.5077 9.25748C35.7734 9.22568 36.0359 9.29943 36.2464 9.46498C36.4569 9.63052 36.5902 9.86818 36.622 10.134L37.0088 13.3749C36.1572 13.6458 35.4076 14.1676 34.8495 14.8882C34.131 15.8162 33.8119 16.9692 33.951 18.1347C34.0902 19.3003 34.6717 20.3458 35.5884 21.0787C36.3004 21.6478 37.1517 21.9783 38.0432 22.0412L38.4301 25.2821C38.4618 25.548 38.3881 25.8103 38.2226 26.0208Z" fill="white"/>
<path d="M16.0459 21.5155H14.426L16.506 19.4376C16.8603 19.0838 16.8603 18.51 16.506 18.156C16.1518 17.8022 15.5774 17.8022 15.223 18.156L11.5945 21.7812C11.0253 22.3498 11.4284 23.3282 12.236 23.3282H13.8559L11.7759 25.4061C11.4218 25.7599 11.4218 26.3337 11.7759 26.6878C12.1303 27.0416 12.7047 27.0416 13.0589 26.6878L16.6874 23.0626C16.9469 22.8035 17.0244 22.4138 16.8841 22.075C16.7436 21.7365 16.413 21.5155 16.0459 21.5155Z" fill="white"/>
<path d="M25.2968 25.8441C25.2772 25.7973 25.253 25.752 25.2249 25.7098C25.1968 25.6668 25.164 25.627 25.128 25.591C25.0921 25.5551 25.0515 25.5223 25.0093 25.4941C24.9663 25.4652 24.921 25.4418 24.8741 25.4223C24.8272 25.4027 24.778 25.3871 24.728 25.377C24.6272 25.3574 24.5233 25.3574 24.4226 25.377C24.3726 25.3871 24.3241 25.4027 24.2765 25.4223C24.2296 25.4418 24.1843 25.4652 24.1421 25.4941C24.0991 25.5223 24.0593 25.5551 24.0233 25.591C23.9866 25.627 23.9546 25.6668 23.9257 25.7098C23.8976 25.752 23.8733 25.7973 23.8538 25.8441C23.8343 25.8918 23.8194 25.941 23.8093 25.991C23.7991 26.041 23.7944 26.0926 23.7944 26.1434C23.7944 26.1941 23.7991 26.2457 23.8093 26.2957C23.8194 26.3457 23.8343 26.3949 23.8538 26.4418C23.8733 26.4895 23.8976 26.5348 23.9257 26.577C23.9546 26.6199 23.9866 26.6598 24.0233 26.6957C24.0593 26.7316 24.0991 26.7645 24.1421 26.7926C24.1843 26.8207 24.2296 26.8449 24.2765 26.8645C24.3241 26.884 24.3726 26.8996 24.4226 26.909C24.4733 26.9191 24.5241 26.9246 24.5757 26.9246C24.6265 26.9246 24.6772 26.9191 24.728 26.909C24.778 26.8996 24.8272 26.884 24.8741 26.8645C24.921 26.8449 24.9663 26.8207 25.0093 26.7926C25.0515 26.7645 25.0921 26.7316 25.128 26.6957C25.164 26.6598 25.1968 26.6199 25.2249 26.577C25.253 26.5348 25.2772 26.4895 25.2968 26.4418C25.3163 26.3949 25.3312 26.3457 25.3413 26.2957C25.3515 26.2457 25.3569 26.1941 25.3569 26.1434C25.3569 26.0926 25.3515 26.041 25.3413 25.991C25.3312 25.941 25.3163 25.8918 25.2968 25.8441Z" fill="white"/>
</svg>
