<svg width="40" height="40" viewBox="0 0 40 40" fill="none" xmlns="http://www.w3.org/2000/svg">
<path d="M17.0363 15.1996H7.76365C6.5706 15.1996 5.6001 14.2576 5.6001 13.0995V7.69952C5.6001 6.54157 6.5706 5.59961 7.76365 5.59961H17.0363C18.2296 5.59961 19.2001 6.54157 19.2001 7.69952V13.0995C19.2001 14.2576 18.2296 15.1996 17.0363 15.1996ZM7.76365 7.3996C7.59318 7.3996 7.45463 7.53407 7.45463 7.69952V13.0995C7.45463 13.2652 7.59318 13.3996 7.76365 13.3996H17.0363C17.207 13.3996 17.3456 13.2652 17.3456 13.0995V7.69952C17.3456 7.53407 17.207 7.3996 17.0363 7.3996H7.76365Z" fill="white"/>
<path d="M17.0363 34.3996H7.76365C6.5706 34.3996 5.6001 33.4576 5.6001 32.2997V19.6997C5.6001 18.5416 6.5706 17.5996 7.76365 17.5996H17.0363C18.2296 17.5996 19.2001 18.5416 19.2001 19.6997V32.2997C19.2001 33.4576 18.2296 34.3996 17.0363 34.3996ZM7.76365 19.3996C7.59318 19.3996 7.45463 19.5341 7.45463 19.6997V32.2997C7.45463 32.4651 7.59318 32.5996 7.76365 32.5996H17.0363C17.207 32.5996 17.3456 32.4651 17.3456 32.2997V19.6997C17.3456 19.5341 17.207 19.3996 17.0363 19.3996H7.76365Z" fill="white"/>
<path d="M32.2365 34.3998H22.9638C21.7706 34.3998 20.8 33.4578 20.8 32.2999V26.8999C20.8 25.7418 21.7706 24.7998 22.9638 24.7998H32.2365C33.4295 24.7998 34.4001 25.7418 34.4001 26.8999V32.2999C34.4001 33.4578 33.4295 34.3998 32.2365 34.3998ZM22.9638 26.5998C22.7931 26.5998 22.6546 26.7343 22.6546 26.8999V32.2999C22.6546 32.4653 22.7931 32.5998 22.9638 32.5998H32.2365C32.407 32.5998 32.5455 32.4653 32.5455 32.2999V26.8999C32.5455 26.7343 32.407 26.5998 32.2365 26.5998H22.9638Z" fill="white"/>
<path d="M32.2365 22.3996H22.9638C21.7706 22.3996 20.8 21.4576 20.8 20.2995V7.69953C20.8 6.54157 21.7706 5.59961 22.9638 5.59961H32.2365C33.4295 5.59961 34.4001 6.54157 34.4001 7.69953V20.2995C34.4001 21.4576 33.4295 22.3996 32.2365 22.3996ZM22.9638 7.3996C22.7931 7.3996 22.6546 7.53407 22.6546 7.69953V20.2995C22.6546 20.4651 22.7931 20.5996 22.9638 20.5996H32.2365C32.407 20.5996 32.5455 20.4651 32.5455 20.2995V7.69953C32.5455 7.53407 32.407 7.3996 32.2365 7.3996H22.9638Z" fill="white"/>
</svg>
