<svg width="40" height="40" viewBox="0 0 40 40" fill="none" xmlns="http://www.w3.org/2000/svg">
<g clip-path="url(#clip0)">
<path d="M39.8985 7.48903C39.6921 6.9908 39.2059 6.66593 38.6666 6.66585H36.6678C36.6663 5.19364 35.4732 4.00059 34.001 3.99902H11.3327C9.86056 4.00074 8.66751 5.19372 8.66587 6.66585V17.3332H5.99896C4.52682 17.335 3.33377 18.528 3.33213 20.0001H1.33332C0.794062 20.0001 0.307856 20.325 0.101513 20.8233C-0.104829 21.3215 0.00924131 21.895 0.390518 22.2763L3.33213 25.2179V33.3344C3.33385 34.8065 4.52682 35.9996 5.99896 36.0012H28.6672C30.1393 35.9995 31.3324 34.8065 31.334 33.3344V22.667H34.0009C35.4731 22.6654 36.6661 21.4724 36.6677 20.0001V11.8837L39.6093 8.94211C39.9907 8.56075 40.1048 7.98727 39.8985 7.48903ZM17.7601 34.6678H10.9096C10.8972 34.6559 10.8866 34.6514 10.8733 34.6372C10.6926 34.4358 10.623 34.1582 10.6871 33.8953C10.7623 33.5655 11.0567 33.3323 11.3949 33.3344H17.3331C17.5101 33.3366 17.6774 33.4151 17.7921 33.5499C17.9291 33.6975 18.0036 33.8925 17.9998 34.0939C18.0002 34.3097 17.9138 34.5165 17.7601 34.6678ZM17.3331 32.001H11.3327C10.9645 32.001 10.666 31.7025 10.666 31.3343C10.666 30.9661 10.9645 30.6676 11.3327 30.6676H17.3331C17.7013 30.6676 17.9998 30.9661 17.9998 31.3343C17.9998 31.7025 17.7013 32.001 17.3331 32.001ZM11.9994 28.6674C12.0026 28.3493 12.2327 28.0789 12.5461 28.025C12.5852 28.037 12.6254 28.045 12.6661 28.0492H15.5724C15.8722 28.1638 16.0472 28.4761 15.9884 28.7915C15.9296 29.107 15.6538 29.3353 15.333 29.3342H12.6661C12.2981 29.3337 11.9999 29.0355 11.9994 28.6674ZM24.0002 34.6678H19.2527C19.3051 34.481 19.3322 34.2879 19.3333 34.0939C19.3369 33.5738 19.1469 33.0709 18.8004 32.683C19.3409 32.1013 19.4844 31.2543 19.1658 30.527C18.8472 29.7997 18.1272 29.331 17.3331 29.3341H17.2103C17.5009 28.5562 17.2652 27.6797 16.6238 27.1524C16.6013 27.0899 16.5696 27.0312 16.5297 26.9781C15.503 25.6323 15.4531 23.2094 15.6625 22.0022C15.7014 21.7869 15.8273 21.5972 16.0104 21.4778C16.214 21.3444 16.4634 21.3006 16.7003 21.3566C17.0841 21.4678 17.3444 21.8244 17.3331 22.2239V23.0886C17.3209 24.2569 17.6713 25.4001 18.3361 26.3609C18.8438 27.1299 19.5896 27.7112 20.4593 28.016C21.7705 28.5479 22.9712 29.3192 24.0002 30.2904V34.6678ZM30.0006 33.3344C29.9999 34.0706 29.4033 34.6671 28.6672 34.6679H25.3336V29.5074H30.0006V33.3344H30.0006ZM30.0006 28.1739H25.3337C24.9 28.1745 24.4938 28.3864 24.2452 28.7418C23.2448 27.8871 22.1036 27.2126 20.8724 26.7484C20.2774 26.5301 19.7695 26.1243 19.4254 25.592C18.9199 24.856 18.6548 23.9814 18.6666 23.0886V22.2239C18.6845 21.4102 18.2475 20.6543 17.5333 20.2638C16.8191 19.8733 15.9468 19.9133 15.2715 20.3677C14.7841 20.6884 14.4505 21.1959 14.3492 21.7704C14.0849 23.4172 14.252 25.1043 14.8341 26.6673H12.6661C12.0015 26.6649 11.3794 26.994 11.0074 27.5448C10.6355 28.0956 10.5625 28.7956 10.8129 29.4113C10.1377 29.5884 9.60531 30.1074 9.411 30.7778C9.21669 31.4482 9.38896 32.1714 9.86478 32.6822C9.62336 32.9466 9.45686 33.2707 9.3824 33.6209C9.30849 33.9671 9.31755 34.3258 9.40904 34.6678H5.99896C5.26281 34.6671 4.66629 34.0705 4.66551 33.3344V26.5513L5.25281 27.1386C5.42095 27.3082 5.66706 27.3749 5.89786 27.3135C6.12866 27.252 6.3089 27.0717 6.37039 26.8409C6.43188 26.6101 6.36524 26.3641 6.19561 26.1959L4.47315 24.4734L4.46604 24.4662L1.33332 21.3335H5.72425C6.09248 21.3335 6.39094 21.0351 6.39094 20.6668C6.39094 20.2986 6.09248 20.0001 5.72425 20.0001H4.66558C4.66629 19.264 5.26289 18.6675 5.99904 18.6667H28.6673C29.4034 18.6674 29.9999 19.264 30.0007 20.0001V28.1739H30.0006ZM35.5342 11.1318L35.5264 11.1395L33.8043 12.8617C33.6347 13.0298 33.568 13.2759 33.6295 13.5067C33.691 13.7375 33.8712 13.9178 34.102 13.9793C34.3328 14.0407 34.5789 13.974 34.7471 13.8045L35.3344 13.2172V20.0003C35.3335 20.7364 34.7371 21.3329 34.0009 21.3338H31.3341V20.0003C31.3324 18.5282 30.1394 17.3351 28.6673 17.3335H9.99924V6.66585C9.99994 5.92971 10.5965 5.33318 11.3327 5.3324H34.0009C34.737 5.33326 35.3335 5.92971 35.3344 6.66585H34.2757C33.9075 6.66585 33.609 6.96431 33.609 7.33254C33.609 7.70077 33.9075 7.99923 34.2757 7.99923H38.6666L35.5342 11.1318Z" fill="white"/>
<path d="M16.6663 10.666C15.1935 10.666 13.9995 11.86 13.9995 13.3328C13.9995 14.8057 15.1935 15.9997 16.6663 15.9997C18.1392 15.9997 19.3332 14.8057 19.3332 13.3328C19.3315 11.8607 18.1386 10.6677 16.6663 10.666ZM16.6663 14.6663C15.9299 14.6663 15.3329 14.0693 15.3329 13.3328C15.3329 12.5964 15.9299 11.9994 16.6663 11.9994C17.4028 11.9994 17.9998 12.5964 17.9998 13.3328C17.9991 14.069 17.4025 14.6656 16.6663 14.6663Z" fill="white"/>
<path d="M22.6668 10.666C21.194 10.666 20 11.86 20 13.3328C20 14.8057 21.194 15.9997 22.6668 15.9997C24.1397 15.9997 25.3337 14.8057 25.3337 13.3328C25.332 11.8607 24.139 10.6677 22.6668 10.666ZM22.6668 14.6663C21.9304 14.6663 21.3334 14.0693 21.3334 13.3328C21.3334 12.5964 21.9304 11.9994 22.6668 11.9994C23.4033 11.9994 24.0003 12.5964 24.0003 13.3328C23.9996 14.069 23.403 14.6656 22.6668 14.6663Z" fill="white"/>
<path d="M28.6673 10.666C27.1945 10.666 26.0005 11.86 26.0005 13.3328C26.0005 14.8057 27.1945 15.9997 28.6673 15.9997C30.1395 15.998 31.3325 14.805 31.3341 13.3328C31.3342 11.86 30.1402 10.666 28.6673 10.666ZM28.6673 14.6663C27.9312 14.6656 27.3346 14.069 27.3339 13.3328C27.3339 12.5964 27.9309 11.9994 28.6673 11.9994C29.4038 11.9994 30.0008 12.5964 30.0008 13.3328C30.0008 14.0693 29.4038 14.6663 28.6673 14.6663Z" fill="white"/>
</g>
<defs>
<clipPath id="clip0">
<rect width="40" height="40" fill="white"/>
</clipPath>
</defs>
</svg>
