<svg width="17" height="14" viewBox="0 0 17 14" fill="none" xmlns="http://www.w3.org/2000/svg">
<path d="M16.7032 6.29045L10.6434 0.310375C10.2527 -0.0763439 9.6208 -0.0713284 9.23409 0.320359C8.84737 0.712047 8.85135 1.34294 9.24407 1.72966L13.5746 6.00339H1.97029C1.41913 6.00339 0.973633 6.44889 0.973633 7.00005C0.973633 7.5512 1.41913 7.99675 1.97029 7.99675H13.5746L9.24407 12.2705C8.8514 12.6572 8.8484 13.2881 9.23409 13.6798C9.42941 13.8771 9.68657 13.9768 9.94373 13.9768C10.1969 13.9768 10.45 13.8811 10.6434 13.6897L16.7032 7.70964C16.8926 7.52228 17.0002 7.26709 17.0002 7C17.0002 6.733 16.8936 6.47884 16.7032 6.29045Z" fill="white"/>
</svg>
