<svg width="40" height="40" viewBox="0 0 40 40" fill="none" xmlns="http://www.w3.org/2000/svg">
<path d="M10.3229 17.7559H3.87402V19.0472H10.3229V17.7559Z" fill="white"/>
<path d="M13.5513 21.6289H3.87402V22.9203H13.5513V21.6289Z" fill="white"/>
<path d="M27.1026 25.5029H3.87402V26.7943H27.1026V25.5029Z" fill="white"/>
<path d="M7.74806 29.3691H3.87402V30.6605H7.74806V29.3691Z" fill="white"/>
<path d="M14.197 29.3691H10.323V30.6605H14.197V29.3691Z" fill="white"/>
<path d="M20.6538 29.3691H16.7798V30.6605H20.6538V29.3691Z" fill="white"/>
<path d="M26.4569 17.1094C25.9845 17.1094 25.5514 17.2432 25.1734 17.4637C24.7797 17.2354 24.3388 17.1094 23.8742 17.1094C22.449 17.1094 21.2915 18.2669 21.2915 19.6921C21.2915 21.1173 22.449 22.2748 23.8742 22.2748C24.3388 22.2748 24.7797 22.1488 25.1734 21.9204C25.5514 22.1409 25.9845 22.2748 26.4569 22.2748C27.8821 22.2748 29.0396 21.1173 29.0396 19.6921C29.0396 18.2669 27.8821 17.1094 26.4569 17.1094ZM24.2049 20.9362C24.0947 20.9677 23.9844 20.9834 23.8742 20.9834C23.1655 20.9834 22.5829 20.4007 22.5829 19.6921C22.5829 18.9834 23.1655 18.4007 23.8742 18.4007C23.9844 18.4007 24.1025 18.4243 24.2049 18.448C24.0002 18.8181 23.8742 19.2354 23.8742 19.6921C23.8742 20.1488 24.0002 20.5661 24.2049 20.9362ZM26.4569 20.9834C25.7482 20.9834 25.1655 20.4007 25.1655 19.6921C25.1655 18.9834 25.7482 18.4007 26.4569 18.4007C27.1656 18.4007 27.7482 18.9834 27.7482 19.6921C27.7482 20.4007 27.1656 20.9834 26.4569 20.9834Z" fill="white"/>
<path d="M38.6538 14.1247L11.5828 5.5735C11.3938 5.51051 9.88196 5.01444 9.15754 6.83335L6.92918 13.8807H1.93702C0.866147 13.8885 0 14.7547 0 15.8177V32.5973C0 33.6682 0.866147 34.5344 1.93702 34.5344H30.3309C31.0081 34.5344 31.5986 34.1879 31.9451 33.6603C31.9451 33.6603 32.8191 33.9044 33.016 33.9044C33.8664 33.9044 34.6065 33.3611 34.8585 32.5501L39.9137 16.55C40.0711 16.0618 40.1814 14.5342 38.6538 14.1247ZM9.60636 9.68377L22.9057 13.8807H14.3308L8.82683 12.1405L9.60636 9.68377ZM8.441 13.3767L10.0552 13.8885H8.28352L8.441 13.3767ZM30.9766 32.5973H30.9687C30.9687 32.9517 30.6774 33.243 30.323 33.243H1.93702C1.58269 33.243 1.29135 32.9517 1.29135 32.5973V15.8177C1.29135 15.4633 1.58269 15.172 1.93702 15.172H30.3309C30.6852 15.172 30.9766 15.4633 30.9766 15.8177V32.5973ZM33.6301 32.1643C33.5278 32.495 33.1498 32.6918 32.8191 32.5816L32.2601 32.4084V20.9043L36.7404 22.3217L33.6301 32.1643ZM37.1262 21.0854L32.2601 19.55V16.8413L37.9058 18.6208L37.1262 21.0854ZM38.6853 16.1641L38.2995 17.3925L32.2286 15.4791C32.0632 14.5736 31.2758 13.8885 30.3309 13.8885H27.1892L9.99219 8.45541L10.378 7.22706C10.4804 6.89634 10.8505 6.69949 11.1891 6.80973L38.2601 15.3531C38.8034 15.4948 38.7325 15.9988 38.6853 16.1641Z" fill="white"/>
</svg>
