<svg width="40" height="40" viewBox="0 0 40 40" fill="none" xmlns="http://www.w3.org/2000/svg">
<path d="M15.8968 25.1195H14.2841L16.3548 23.1018C16.7076 22.7583 16.7076 22.201 16.3548 21.8573C16.0022 21.5137 15.4304 21.5137 15.0776 21.8573L11.4652 25.3775C10.8985 25.9296 11.2998 26.8797 12.1038 26.8797H13.7165L11.6458 28.8974C11.2932 29.241 11.2932 29.7982 11.6458 30.1419C11.9986 30.4855 12.5704 30.4855 12.923 30.1419L16.5354 26.6218C16.7938 26.3702 16.8709 25.9917 16.7312 25.6628C16.5914 25.3341 16.2622 25.1195 15.8968 25.1195Z" fill="white"/>
<path d="M33.5531 10.6819H32.706V9.27014C32.706 8.80234 32.3268 8.4231 31.859 8.4231C31.3912 8.4231 31.0119 8.80234 31.0119 9.27014V10.6819H29.3176V9.27014C29.3176 8.80234 28.9384 8.4231 28.4706 8.4231C28.0028 8.4231 27.6235 8.80234 27.6235 9.27014V10.6819H26.7765C26.3087 10.6819 25.9294 11.0611 25.9294 11.5289V13.2232C25.9294 15.2685 27.3869 16.9797 29.3176 17.3732V29.5997C29.3176 30.3782 28.6844 31.0114 27.9059 31.0114H27.3414C26.5629 31.0114 25.9294 30.3782 25.9294 29.5997V23.9525C25.9294 22.2399 24.5361 20.8467 22.8236 20.8467H22.5412V8.70544C22.5412 6.9929 21.148 5.59961 19.4354 5.59961H8.70593C6.99338 5.59961 5.6001 6.9929 5.6001 8.70544V33.5526C5.6001 34.0204 5.97935 34.3996 6.44714 34.3996H21.6942C22.162 34.3996 22.5412 34.0204 22.5412 33.5526V22.5407H22.8236C23.6021 22.5407 24.2355 23.174 24.2355 23.9525V29.5995C24.2355 31.3122 25.6288 32.7055 27.3414 32.7055H27.9061C29.6186 32.7055 31.0119 31.3122 31.0119 29.5995V17.3732C32.9427 16.9797 34.4001 15.2685 34.4001 13.223V11.5289C34.4001 11.0611 34.0209 10.6819 33.5531 10.6819ZM8.70593 7.2937H19.4354C20.2139 7.2937 20.8471 7.92717 20.8471 8.70544V17.4585H7.29419V8.70544C7.29419 7.92695 7.92744 7.2937 8.70593 7.2937ZM20.8471 32.7055H7.29419V19.1526H20.8471V32.7055ZM32.706 13.223C32.706 14.6244 31.5661 15.7642 30.1649 15.7642C28.7637 15.7642 27.6237 14.6242 27.6237 13.223V12.376H32.706V13.223Z" fill="white"/>
</svg>
