<svg width="40" height="40" viewBox="0 0 40 40" fill="none" xmlns="http://www.w3.org/2000/svg">
<g clip-path="url(#clip0)">
<path d="M16.5984 18.6795C16.5984 18.3112 16.8969 18.0127 17.2652 18.0127H18.5983C18.9666 18.0127 19.2651 18.3112 19.2651 18.6795C19.2651 19.0478 18.9666 19.3463 18.5983 19.3463H17.2652C16.8969 19.3463 16.5984 19.0478 16.5984 18.6795Z" fill="white"/>
<path d="M39.3613 16.0196L34.8324 15.3729C34.0066 14.8656 33.1496 14.4114 32.2661 14.0129C29.3481 12.6912 26.1811 12.0092 22.9775 12.0127H22.1908C18.4101 12.0154 14.69 12.9641 11.3694 14.7722L9.08386 16.0191C6.40843 16.0492 3.78455 16.7608 1.46017 18.0857C0.515557 18.6275 -0.0677082 19.6326 -0.0693359 20.7213V24.6801C-0.0693359 25.0486 0.229079 25.347 0.597485 25.347H2.83614C3.56427 27.4242 5.83846 28.518 7.9157 27.7899C9.05917 27.3892 9.95794 26.4902 10.3586 25.347H28.1713C28.8994 27.4242 31.1736 28.518 33.2508 27.7899C34.394 27.3892 35.2931 26.4902 35.6938 25.347H35.933C36.0179 25.347 36.1021 25.331 36.181 25.2995L38.3404 24.433C39.3051 24.051 39.937 23.1173 39.9334 22.0801V16.6796C39.9334 16.3481 39.6895 16.0668 39.3613 16.0196ZM9.21055 24.5469C8.91566 25.9899 7.50687 26.9207 6.0639 26.6258C4.62066 26.3309 3.68987 24.9221 3.98476 23.4789C4.27992 22.0359 5.68871 21.1051 7.13168 21.4C8.37336 21.6537 9.2648 22.7461 9.26453 24.0136C9.26453 24.1926 9.24636 24.3714 9.21055 24.5469ZM21.2654 24.0136H10.5979C10.5979 21.8042 8.80714 20.0132 6.59779 20.0132C4.38844 20.0132 2.59741 21.8042 2.59741 24.0136H1.26403V20.7213C1.26485 20.1106 1.59202 19.5466 2.12211 19.2433C4.29783 18.0011 6.75948 17.3473 9.26453 17.3465H21.2654V24.0136ZM21.2654 16.0131H11.8795L12.008 15.9428C14.8584 14.3938 18.0246 13.5156 21.2654 13.3754V16.0131ZM22.5988 13.3461H22.9761C25.663 13.3431 28.3254 13.8531 30.8209 14.849L29.6568 16.0131H22.5988V13.3461ZM34.5457 24.5469C34.2508 25.9899 32.842 26.9207 31.3988 26.6258C29.9558 26.3309 29.025 24.9221 29.3199 23.4789C29.6148 22.0359 31.0238 21.1051 32.4668 21.4C33.7085 21.6537 34.5999 22.7461 34.5997 24.0136C34.5997 24.1926 34.5815 24.3714 34.5457 24.5469ZM38.6 18.013H37.2667C36.8984 18.013 36.5999 18.3116 36.5999 18.6798C36.5999 19.0481 36.8984 19.3467 37.2667 19.3467H38.6V22.0801C38.6017 22.5714 38.3022 23.0136 37.8453 23.194L35.933 23.9621C35.933 23.9007 35.9252 23.84 35.9211 23.7787C35.917 23.7174 35.9157 23.6455 35.9092 23.5787C35.9024 23.512 35.8891 23.4453 35.8785 23.3788C35.8677 23.312 35.8598 23.2453 35.8465 23.1848C35.8332 23.124 35.8137 23.0568 35.7963 22.9933C35.7789 22.9301 35.7657 22.8661 35.7456 22.8039C35.7258 22.7421 35.7016 22.6827 35.6791 22.6219C35.6563 22.5614 35.6357 22.4987 35.6124 22.4385C35.589 22.3786 35.5576 22.324 35.5296 22.2673C35.5017 22.2106 35.4743 22.1485 35.4431 22.0913C35.4116 22.034 35.3764 21.9852 35.3462 21.932C35.3164 21.8786 35.2798 21.8178 35.2418 21.7633C35.2035 21.7085 35.1683 21.6653 35.1317 21.616C35.095 21.5666 35.0535 21.5085 35.0109 21.4573C34.9683 21.406 34.9285 21.3658 34.887 21.3238C34.8457 21.282 34.7996 21.2253 34.7538 21.1787C34.7076 21.132 34.6623 21.0951 34.6165 21.0539C34.5704 21.0126 34.521 20.9638 34.4703 20.9204C34.4198 20.8773 34.3683 20.8439 34.3178 20.8059C34.2671 20.7679 34.2163 20.7272 34.1632 20.6917C34.1097 20.6564 34.0498 20.6252 33.9925 20.5878C33.935 20.5504 33.8884 20.5211 33.8344 20.4926C33.7804 20.4638 33.7131 20.4337 33.6518 20.4044C33.5905 20.3751 33.5425 20.3491 33.4858 20.3252C33.4291 20.301 33.3523 20.2758 33.2858 20.2519C33.2191 20.2278 33.1757 20.2091 33.119 20.1912C33.043 20.1678 32.9652 20.151 32.8876 20.1318C32.8368 20.1198 32.7883 20.1038 32.737 20.0932C32.6551 20.0764 32.571 20.0672 32.4877 20.055C32.4383 20.0485 32.3911 20.0376 32.3418 20.033C32.2083 20.0197 32.0751 20.0124 31.9351 20.0124C29.7266 20.0146 27.9369 21.8042 27.9347 24.0128H22.5991V17.3462H29.9327C30.1096 17.3462 30.2792 17.2759 30.404 17.1509L32.1329 15.422C32.8586 15.7673 33.5642 16.1533 34.2465 16.5782C34.3251 16.6273 34.413 16.6596 34.505 16.6729L38.6 17.2575V18.013Z" fill="white"/>
</g>
<defs>
<clipPath id="clip0">
<rect width="40" height="40" fill="white"/>
</clipPath>
</defs>
</svg>
