<svg width="40" height="40" viewBox="0 0 40 40" fill="none" xmlns="http://www.w3.org/2000/svg">
<path d="M39.9816 25.0973L39.5115 21.1595C39.4609 20.7362 39.0803 20.4316 38.6563 20.4748C37.1026 20.6338 35.6876 19.501 35.5025 17.9501C35.3173 16.3991 36.4259 14.9653 37.9734 14.7539C38.3959 14.6962 38.694 14.3105 38.6434 13.8873L38.1734 9.94937C38.0922 9.26906 37.7509 8.66109 37.2125 8.23742C36.674 7.81382 36.0028 7.62531 35.3226 7.7064L7.88172 10.9818C7.20828 11.0622 6.60602 11.3977 6.18297 11.9268H2.565C1.15062 11.9269 0 13.0776 0 14.4919V18.4577C0 18.8841 0.341797 19.2316 0.767969 19.2389C2.32977 19.2654 3.60039 20.5577 3.60039 22.1197C3.60039 23.6816 2.32977 24.974 0.767969 25.0005C0.341797 25.0077 0 25.3553 0 25.7816V29.7474C0 31.1617 1.15062 32.3123 2.565 32.3123H24.5753H30.2006C31.615 32.3123 32.7656 31.1617 32.7656 29.7473V28.5418L37.7387 27.9482C38.419 27.867 39.027 27.5258 39.4506 26.9873C39.8741 26.4487 40.0627 25.7776 39.9816 25.0973ZM31.2031 27.1547V28.7283V29.7473C31.2031 30.3001 30.7534 30.7498 30.2006 30.7498H25.3566V29.4262V29.2851C25.3566 28.8536 25.0068 28.5038 24.5753 28.5038C24.1438 28.5038 23.7941 28.8536 23.7941 29.2851V29.6127V30.7498H14.2673H8.48555H2.565C2.01227 30.7498 1.5625 30.3001 1.5625 29.7473V26.4835C2.44023 26.3155 3.24641 25.8863 3.88586 25.2368C4.70937 24.4005 5.16289 23.2934 5.16289 22.1196C5.16289 20.9458 4.70937 19.8387 3.88586 19.0024C3.24633 18.353 2.44023 17.9237 1.5625 17.7557V14.4919C1.5625 13.9391 2.01219 13.4894 2.565 13.4894H5.62125H7.185H23.7941V23.0027C23.7941 23.4342 24.1439 23.784 24.5754 23.784C25.0069 23.784 25.3566 23.4342 25.3566 23.0027V13.4894H30.2007C30.7534 13.4894 31.2032 13.9391 31.2032 14.492V17.7558C30.3255 17.9238 29.5193 18.353 28.8798 19.0025C28.0563 19.8388 27.6028 20.9459 27.6028 22.1197C27.6028 23.2935 28.0563 24.4005 28.8798 25.2369C29.5193 25.8863 30.3255 26.3155 31.2032 26.4836V27.1547H31.2031ZM38.2226 26.0212C38.057 26.2316 37.8194 26.3651 37.5535 26.3968L32.7656 26.9683V25.7816C32.7656 25.3552 32.4238 25.0077 31.9977 25.0004C30.4359 24.9739 29.1652 23.6816 29.1652 22.1195C29.1652 20.5575 30.4359 19.2652 31.9977 19.2387C32.4239 19.2315 32.7656 18.8839 32.7656 18.4576V14.4917C32.7656 13.0773 31.615 11.9267 30.2006 11.9267H24.5753H13.1481L35.5077 9.25796C35.7734 9.22617 36.0359 9.29992 36.2464 9.46546C36.4569 9.63101 36.5902 9.86867 36.622 10.1345L37.0088 13.3754C36.1572 13.6463 35.4076 14.168 34.8495 14.8887C34.131 15.8167 33.8119 16.9697 33.951 18.1352C34.0902 19.3008 34.6717 20.3463 35.5884 21.0791C36.3004 21.6483 37.1517 21.9788 38.0432 22.0417L38.4301 25.2826C38.4618 25.5484 38.3881 25.8108 38.2226 26.0212Z" fill="#1371EF"/>
<path d="M16.0459 21.5155H14.426L16.506 19.4376C16.8603 19.0838 16.8603 18.51 16.506 18.156C16.1518 17.8022 15.5774 17.8022 15.223 18.156L11.5945 21.7812C11.0253 22.3498 11.4284 23.3282 12.236 23.3282H13.8559L11.7759 25.4061C11.4218 25.7599 11.4218 26.3337 11.7759 26.6878C12.1303 27.0416 12.7047 27.0416 13.0589 26.6878L16.6874 23.0626C16.9469 22.8035 17.0244 22.4138 16.8841 22.075C16.7436 21.7365 16.413 21.5155 16.0459 21.5155Z" fill="#1371EF"/>
<path d="M25.2968 25.8446C25.2772 25.7978 25.253 25.7524 25.2249 25.7103C25.1968 25.6673 25.164 25.6274 25.128 25.5915C25.0921 25.5556 25.0515 25.5228 25.0093 25.4946C24.9663 25.4657 24.921 25.4423 24.8741 25.4228C24.8272 25.4032 24.778 25.3876 24.728 25.3774C24.6272 25.3579 24.5233 25.3579 24.4226 25.3774C24.3726 25.3876 24.3241 25.4032 24.2765 25.4228C24.2296 25.4423 24.1843 25.4657 24.1421 25.4946C24.0991 25.5228 24.0593 25.5556 24.0233 25.5915C23.9866 25.6274 23.9546 25.6673 23.9257 25.7103C23.8976 25.7524 23.8733 25.7978 23.8538 25.8446C23.8343 25.8923 23.8194 25.9415 23.8093 25.9915C23.7991 26.0415 23.7944 26.0931 23.7944 26.1438C23.7944 26.1946 23.7991 26.2462 23.8093 26.2962C23.8194 26.3462 23.8343 26.3954 23.8538 26.4423C23.8733 26.4899 23.8976 26.5353 23.9257 26.5774C23.9546 26.6204 23.9866 26.6603 24.0233 26.6962C24.0593 26.7321 24.0991 26.7649 24.1421 26.7931C24.1843 26.8212 24.2296 26.8454 24.2765 26.8649C24.3241 26.8845 24.3726 26.9001 24.4226 26.9095C24.4733 26.9196 24.5241 26.9251 24.5757 26.9251C24.6265 26.9251 24.6772 26.9196 24.728 26.9095C24.778 26.9001 24.8272 26.8845 24.8741 26.8649C24.921 26.8454 24.9663 26.8212 25.0093 26.7931C25.0515 26.7649 25.0921 26.7321 25.128 26.6962C25.164 26.6603 25.1968 26.6204 25.2249 26.5774C25.253 26.5353 25.2772 26.4899 25.2968 26.4423C25.3163 26.3954 25.3312 26.3462 25.3413 26.2962C25.3515 26.2462 25.3569 26.1946 25.3569 26.1438C25.3569 26.0931 25.3515 26.0415 25.3413 25.9915C25.3312 25.9415 25.3163 25.8923 25.2968 25.8446Z" fill="#1371EF"/>
</svg>
