<svg width="74" height="74" viewBox="0 0 74 74" fill="none" xmlns="http://www.w3.org/2000/svg">
<path fill-rule="evenodd" clip-rule="evenodd" d="M59.7276 65.0578C53.5158 70.099 45.6056 73.125 37.0004 73.125C17.0809 73.125 0.875 56.9195 0.875 37C0.875 17.0805 17.0809 0.875 37.0004 0.875C56.92 0.875 73.1259 17.0805 73.125 37C73.125 48.1307 68.0645 58.0995 60.1254 64.7316C60.0099 64.8585 59.8764 64.9684 59.7276 65.0578ZM33.3755 46.3994C33.3755 46.6965 33.3591 46.9922 33.3269 47.2853C33.2172 48.2829 32.9242 49.25 32.4709 50.1372C33.9293 50.4626 35.4182 50.6153 36.9195 50.5818C38.4436 50.549 39.9497 50.3255 41.4196 49.9252C40.9024 48.8358 40.6271 47.6363 40.6271 46.3994V44.0165C39.7853 44.4916 38.8774 44.7898 37.9522 44.9108C37.636 44.9522 37.3178 44.9729 36.9996 44.9729C35.7516 44.9729 34.5046 44.654 33.3755 44.0187V46.3994ZM51.2599 52.1576L47.3277 50.8355C46.629 50.6023 45.9927 50.2058 45.4848 49.6856C45.476 49.6758 45.4634 49.6629 45.4539 49.6532L45.4515 49.6508L45.442 49.641L45.4395 49.6384L45.4279 49.6264L45.4264 49.6248C45.4223 49.6206 45.4174 49.6154 45.4123 49.6103L45.41 49.6078L45.4067 49.6041L45.4013 49.5984C44.59 48.7288 44.1438 47.5947 44.1438 46.3994V41.8826L45.7256 40.9203C47.9169 39.5858 49.2778 37.163 49.2778 34.5956V27.6253V27.6242V27.6232V27.6221V27.6211V27.62V27.619V27.6179V27.6169V27.6158V27.6148V27.6137V27.6127V21.5447C49.2778 16.9893 45.5741 13.2836 41.0217 13.2836H32.9774C28.4242 13.2836 24.7205 16.9893 24.7205 21.5447V26.7869V26.7912V34.5947C24.7205 37.1622 26.0822 39.5858 28.2735 40.9194L29.8588 41.8842V46.3994C29.8588 47.684 29.3229 48.9243 28.3878 49.8083L28.3832 49.8125L28.3788 49.8168L28.3708 49.8248C28.366 49.8296 28.3636 49.832 28.3615 49.8339L28.3605 49.8348C27.8771 50.2846 27.3074 50.621 26.6678 50.8365L22.7392 52.1577C21.2155 52.6706 19.8051 53.4358 18.5441 54.4324C17.8633 54.9729 17.2297 55.5815 16.6606 56.2399C16.0251 56.9761 16.1057 58.0896 16.84 58.7267C17.1724 59.0149 17.582 59.1564 17.9896 59.1564C18.4821 59.1564 18.9723 58.9498 19.3202 58.5477C19.7448 58.0554 20.2181 57.6002 20.7248 57.1992C21.6654 56.455 22.7203 55.8828 23.8586 55.4993L27.7862 54.179C28.552 53.9216 29.2622 53.559 29.9087 53.1015C32.0529 53.7728 34.2691 54.1121 36.5155 54.1121C36.6758 54.1121 36.835 54.1096 36.9939 54.107C39.3136 54.056 41.5972 53.645 43.7956 52.8824C44.5198 53.4449 45.3398 53.8882 46.2142 54.1791L50.1416 55.5002C53.5346 56.6394 56.0461 59.3945 56.889 62.8161C51.3808 67.067 44.4817 69.5997 37.0004 69.5997C19.0199 69.5997 4.39173 54.9757 4.39173 37C4.39173 19.0243 19.0199 4.40029 37.0004 4.40029C54.981 4.40029 69.6091 19.0243 69.6091 37C69.6091 46.1216 65.8414 54.3785 59.7813 60.3014C58.3197 56.4933 55.2405 53.4947 51.2599 52.1576ZM45.762 25.1902L34.1029 21.4428C33.6571 21.3005 33.1714 21.3408 32.7547 21.5575L28.238 23.9128V21.5447C28.238 18.9339 30.3641 16.8088 32.9774 16.8088H41.0217C43.6351 16.8088 45.762 18.9339 45.762 21.5447V25.1902ZM30.0998 37.9065L34.9804 40.8773C36.2258 41.636 37.7733 41.636 39.0197 40.8773L43.9002 37.9065C45.048 37.2076 45.762 35.9388 45.762 34.5956V28.8927L33.7273 25.025L28.2372 27.8862L28.238 34.5956C28.238 35.9388 28.952 37.2084 30.0998 37.9065Z" fill="#1371EF"/>
<path d="M45.4515 49.6508C45.4472 49.6464 45.4438 49.6429 45.442 49.641M45.4515 49.6508L45.4539 49.6532M45.4515 49.6508L45.442 49.641M45.4515 49.6508C45.4523 49.6516 45.4531 49.6524 45.4539 49.6532M45.442 49.641L45.4395 49.6384L45.4279 49.6264L45.4264 49.6248C45.4223 49.6206 45.4174 49.6154 45.4123 49.6103M45.4123 49.6103C45.4123 49.6103 45.4119 49.6099 45.41 49.6078M45.4123 49.6103L45.41 49.6078M45.41 49.6078C45.41 49.6078 45.4081 49.6057 45.4067 49.6041M45.41 49.6078L45.4067 49.6041M45.4067 49.6041C45.4052 49.6025 45.4033 49.6005 45.4013 49.5984M45.4067 49.6041L45.4013 49.5984M45.4013 49.5984C44.59 48.7288 44.1438 47.5947 44.1438 46.3994V41.8826L45.7256 40.9203C47.9169 39.5858 49.2778 37.163 49.2778 34.5956V27.6253V27.6242V27.6232V27.6221V27.6211V27.62V27.619V27.6179V27.6169V27.6158V27.6148V27.6137V27.6127V21.5447C49.2778 16.9893 45.5741 13.2836 41.0217 13.2836H32.9774C28.4242 13.2836 24.7205 16.9893 24.7205 21.5447V26.7869V26.7912V34.5947C24.7205 37.1622 26.0822 39.5858 28.2735 40.9194L29.8588 41.8842V46.3994C29.8588 47.684 29.3229 48.9243 28.3878 49.8083M28.3878 49.8083C28.3862 49.8097 28.3847 49.8111 28.3832 49.8125M28.3878 49.8083L28.3832 49.8125M28.3788 49.8168C28.3756 49.8199 28.3729 49.8227 28.3708 49.8248M28.3788 49.8168C28.3788 49.8168 28.3817 49.814 28.3832 49.8125M28.3788 49.8168L28.3708 49.8248M28.3788 49.8168L28.3832 49.8125M28.3708 49.8248C28.366 49.8296 28.3636 49.832 28.3615 49.8339L28.3605 49.8348C27.8771 50.2846 27.3074 50.621 26.6678 50.8365L22.7392 52.1577C21.2155 52.6706 19.8051 53.4358 18.5441 54.4324C17.8633 54.9729 17.2297 55.5815 16.6606 56.2399C16.0251 56.9761 16.1057 58.0896 16.84 58.7267M16.84 58.7267L16.9207 58.6337M16.84 58.7267C17.1724 59.0149 17.582 59.1564 17.9896 59.1564C18.4821 59.1564 18.9723 58.9498 19.3202 58.5477C19.7448 58.0554 20.2181 57.6002 20.7248 57.1992C21.6654 56.455 22.7203 55.8828 23.8586 55.4993L27.7862 54.179C28.552 53.9216 29.2622 53.559 29.9087 53.1015C32.0529 53.7728 34.2691 54.1121 36.5155 54.1121C36.6758 54.1121 36.835 54.1096 36.9939 54.107C39.3136 54.056 41.5972 53.645 43.7956 52.8824C44.5198 53.4449 45.3398 53.8882 46.2142 54.1791L50.1416 55.5002C53.5346 56.6394 56.0461 59.3945 56.889 62.8161C51.3808 67.067 44.4817 69.5997 37.0004 69.5997C19.0199 69.5997 4.39173 54.9757 4.39173 37C4.39173 19.0243 19.0199 4.40029 37.0004 4.40029C54.981 4.40029 69.6091 19.0243 69.6091 37C69.6091 46.1216 65.8414 54.3785 59.7813 60.3014C58.3197 56.4933 55.2405 53.4947 51.2599 52.1576L47.3277 50.8355C46.629 50.6023 45.9927 50.2058 45.4848 49.6856C45.476 49.6758 45.4634 49.6629 45.4539 49.6532M45.762 25.1902L34.1029 21.4428C33.6571 21.3005 33.1714 21.3408 32.7547 21.5575L28.238 23.9128V21.5447C28.238 18.9339 30.3641 16.8088 32.9774 16.8088H41.0217C43.6351 16.8088 45.762 18.9339 45.762 21.5447V25.1902ZM34.9804 40.8773L30.0998 37.9065C28.952 37.2084 28.238 35.9388 28.238 34.5956L28.2372 27.8862L33.7273 25.025L45.762 28.8927V34.5956C45.762 35.9388 45.048 37.2076 43.9002 37.9065L39.0197 40.8773C37.7733 41.636 36.2258 41.636 34.9804 40.8773ZM36.9195 50.5818C35.4182 50.6153 33.9293 50.4626 32.4709 50.1372C32.9242 49.25 33.2172 48.2829 33.3269 47.2853C33.3591 46.9922 33.3755 46.6965 33.3755 46.3994V44.0187C34.5046 44.654 35.7516 44.9729 36.9996 44.9729C37.3178 44.9729 37.636 44.9522 37.9522 44.9108C38.8774 44.7898 39.7853 44.4916 40.6271 44.0165V46.3994C40.6271 47.6363 40.9024 48.8358 41.4196 49.9252C39.9497 50.3255 38.4436 50.549 36.9195 50.5818ZM37.0004 73.125C45.6056 73.125 53.5158 70.099 59.7276 65.0578C59.8764 64.9684 60.0099 64.8585 60.1254 64.7316C68.0645 58.0995 73.125 48.1307 73.125 37C73.1259 17.0805 56.92 0.875 37.0004 0.875C17.0809 0.875 0.875 17.0805 0.875 37C0.875 56.9195 17.0809 73.125 37.0004 73.125Z" stroke="#1371EF" stroke-width="0.25"/>
</svg>
