<svg width="40" height="40" viewBox="0 0 40 40" fill="none" xmlns="http://www.w3.org/2000/svg">
<path d="M17.0362 15.2001H7.76352C6.57048 15.2001 5.59998 14.2581 5.59998 13.1V7.70001C5.59998 6.54206 6.57048 5.6001 7.76352 5.6001H17.0362C18.2295 5.6001 19.2 6.54206 19.2 7.70001V13.1C19.2 14.2581 18.2295 15.2001 17.0362 15.2001ZM7.76352 7.40008C7.59306 7.40008 7.45451 7.53456 7.45451 7.70001V13.1C7.45451 13.2656 7.59306 13.4001 7.76352 13.4001H17.0362C17.2069 13.4001 17.3454 13.2656 17.3454 13.1V7.70001C17.3454 7.53456 17.2069 7.40008 17.0362 7.40008H7.76352Z" fill="#136EE8"/>
<path d="M17.0362 34.4001H7.76352C6.57048 34.4001 5.59998 33.4581 5.59998 32.3002V19.7002C5.59998 18.5421 6.57048 17.6001 7.76352 17.6001H17.0362C18.2295 17.6001 19.2 18.5421 19.2 19.7002V32.3002C19.2 33.4581 18.2295 34.4001 17.0362 34.4001ZM7.76352 19.4001C7.59306 19.4001 7.45451 19.5346 7.45451 19.7002V32.3002C7.45451 32.4656 7.59306 32.6001 7.76352 32.6001H17.0362C17.2069 32.6001 17.3454 32.4656 17.3454 32.3002V19.7002C17.3454 19.5346 17.2069 19.4001 17.0362 19.4001H7.76352Z" fill="#136EE8"/>
<path d="M32.2364 34.4003H22.9638C21.7705 34.4003 20.8 33.4583 20.8 32.3004V26.9004C20.8 25.7423 21.7705 24.8003 22.9638 24.8003H32.2364C33.4295 24.8003 34.4 25.7423 34.4 26.9004V32.3004C34.4 33.4583 33.4295 34.4003 32.2364 34.4003ZM22.9638 26.6003C22.7931 26.6003 22.6545 26.7348 22.6545 26.9004V32.3004C22.6545 32.4658 22.7931 32.6003 22.9638 32.6003H32.2364C32.4069 32.6003 32.5455 32.4658 32.5455 32.3004V26.9004C32.5455 26.7348 32.4069 26.6003 32.2364 26.6003H22.9638Z" fill="#136EE8"/>
<path d="M32.2364 22.4001H22.9638C21.7705 22.4001 20.8 21.4581 20.8 20.3V7.70002C20.8 6.54206 21.7705 5.6001 22.9638 5.6001H32.2364C33.4295 5.6001 34.4 6.54206 34.4 7.70002V20.3C34.4 21.4581 33.4295 22.4001 32.2364 22.4001ZM22.9638 7.40009C22.7931 7.40009 22.6545 7.53456 22.6545 7.70002V20.3C22.6545 20.4656 22.7931 20.6001 22.9638 20.6001H32.2364C32.4069 20.6001 32.5455 20.4656 32.5455 20.3V7.70002C32.5455 7.53456 32.4069 7.40009 32.2364 7.40009H22.9638Z" fill="#136EE8"/>
</svg>
