<svg width="40" height="40" viewBox="0 0 40 40" fill="none" xmlns="http://www.w3.org/2000/svg">
<g clip-path="url(#clip0)">
<path d="M39.8985 7.48855C39.6921 6.99031 39.2059 6.66544 38.6666 6.66536H36.6678C36.6663 5.19315 35.4732 4.0001 34.001 3.99854H11.3327C9.86056 4.00025 8.66751 5.19323 8.66587 6.66536V17.3328H5.99896C4.52682 17.3345 3.33377 18.5275 3.33213 19.9997H1.33332C0.794062 19.9997 0.307856 20.3245 0.101513 20.8228C-0.104829 21.321 0.00924131 21.8945 0.390518 22.2758L3.33213 25.2174V33.3339C3.33385 34.806 4.52682 35.9991 5.99896 36.0007H28.6672C30.1393 35.999 31.3324 34.806 31.334 33.3339V22.6665H34.0009C35.4731 22.6649 36.6661 21.4719 36.6677 19.9997V11.8832L39.6093 8.94162C39.9907 8.56026 40.1048 7.98678 39.8985 7.48855ZM17.7601 34.6673H10.9096C10.8972 34.6554 10.8866 34.6509 10.8733 34.6367C10.6926 34.4353 10.623 34.1577 10.6871 33.8948C10.7623 33.565 11.0567 33.3318 11.3949 33.3339H17.3331C17.5101 33.3361 17.6774 33.4146 17.7921 33.5494C17.9291 33.697 18.0036 33.892 17.9998 34.0934C18.0002 34.3092 17.9138 34.516 17.7601 34.6673ZM17.3331 32.0005H11.3327C10.9645 32.0005 10.666 31.702 10.666 31.3338C10.666 30.9656 10.9645 30.6671 11.3327 30.6671H17.3331C17.7013 30.6671 17.9998 30.9656 17.9998 31.3338C17.9998 31.702 17.7013 32.0005 17.3331 32.0005ZM11.9994 28.6669C12.0026 28.3488 12.2327 28.0784 12.5461 28.0245C12.5852 28.0365 12.6254 28.0445 12.6661 28.0487H15.5724C15.8722 28.1633 16.0472 28.4756 15.9884 28.7911C15.9296 29.1065 15.6538 29.3348 15.333 29.3337H12.6661C12.2981 29.3332 11.9999 29.035 11.9994 28.6669ZM24.0002 34.6673H19.2527C19.3051 34.4805 19.3322 34.2875 19.3333 34.0934C19.3369 33.5733 19.1469 33.0704 18.8004 32.6825C19.3409 32.1008 19.4844 31.2538 19.1658 30.5265C18.8472 29.7993 18.1272 29.3305 17.3331 29.3336H17.2103C17.5009 28.5557 17.2652 27.6792 16.6238 27.1519C16.6013 27.0895 16.5696 27.0307 16.5297 26.9776C15.503 25.6319 15.4531 23.2089 15.6625 22.0017C15.7014 21.7864 15.8273 21.5967 16.0104 21.4773C16.214 21.3439 16.4634 21.3001 16.7003 21.3562C17.0841 21.4673 17.3444 21.8239 17.3331 22.2234V23.0881C17.3209 24.2564 17.6713 25.3996 18.3361 26.3604C18.8438 27.1294 19.5896 27.7107 20.4593 28.0155C21.7705 28.5474 22.9712 29.3187 24.0002 30.2899V34.6673ZM30.0006 33.334C29.9999 34.0701 29.4033 34.6666 28.6672 34.6674H25.3336V29.5069H30.0006V33.334H30.0006ZM30.0006 28.1734H25.3337C24.9 28.1741 24.4938 28.386 24.2452 28.7413C23.2448 27.8866 22.1036 27.2121 20.8724 26.7479C20.2774 26.5296 19.7695 26.1238 19.4254 25.5915C18.9199 24.8555 18.6548 23.981 18.6666 23.0881V22.2234C18.6845 21.4097 18.2475 20.6538 17.5333 20.2633C16.8191 19.8728 15.9468 19.9129 15.2715 20.3672C14.7841 20.6879 14.4505 21.1954 14.3492 21.7699C14.0849 23.4167 14.252 25.1038 14.8341 26.6668H12.6661C12.0015 26.6644 11.3794 26.9935 11.0074 27.5443C10.6355 28.0951 10.5625 28.7951 10.8129 29.4108C10.1377 29.5879 9.60531 30.1069 9.411 30.7773C9.21669 31.4477 9.38896 32.1709 9.86478 32.6817C9.62336 32.9461 9.45686 33.2702 9.3824 33.6204C9.30849 33.9666 9.31755 34.3254 9.40904 34.6673H5.99896C5.26281 34.6666 4.66629 34.07 4.66551 33.3339V26.5508L5.25281 27.1381C5.42095 27.3078 5.66706 27.3744 5.89786 27.313C6.12866 27.2515 6.3089 27.0712 6.37039 26.8405C6.43188 26.6097 6.36524 26.3636 6.19561 26.1954L4.47315 24.4729L4.46604 24.4658L1.33332 21.333H5.72425C6.09248 21.333 6.39094 21.0346 6.39094 20.6663C6.39094 20.2981 6.09248 19.9997 5.72425 19.9997H4.66558C4.66629 19.2635 5.26289 18.667 5.99904 18.6662H28.6673C29.4034 18.6669 29.9999 19.2635 30.0007 19.9997V28.1734H30.0006ZM35.5342 11.1313L35.5264 11.139L33.8043 12.8612C33.6347 13.0293 33.568 13.2754 33.6295 13.5062C33.691 13.737 33.8712 13.9173 34.102 13.9788C34.3328 14.0403 34.5789 13.9735 34.7471 13.804L35.3344 13.2168V19.9998C35.3335 20.7359 34.7371 21.3324 34.0009 21.3333H31.3341V19.9998C31.3324 18.5277 30.1394 17.3346 28.6673 17.333H9.99924V6.66536C9.99994 5.92922 10.5965 5.33269 11.3327 5.33191H34.0009C34.737 5.33277 35.3335 5.92922 35.3344 6.66536H34.2757C33.9075 6.66536 33.609 6.96382 33.609 7.33205C33.609 7.70028 33.9075 7.99874 34.2757 7.99874H38.6666L35.5342 11.1313Z" fill="#1371EF"/>
<path d="M16.6663 10.6655C15.1935 10.6655 13.9995 11.8595 13.9995 13.3324C13.9995 14.8052 15.1935 15.9992 16.6663 15.9992C18.1392 15.9992 19.3332 14.8052 19.3332 13.3324C19.3315 11.8602 18.1386 10.6672 16.6663 10.6655ZM16.6663 14.6658C15.9299 14.6658 15.3329 14.0688 15.3329 13.3324C15.3329 12.5959 15.9299 11.9989 16.6663 11.9989C17.4028 11.9989 17.9998 12.5959 17.9998 13.3324C17.9991 14.0685 17.4025 14.6651 16.6663 14.6658Z" fill="#1371EF"/>
<path d="M22.6668 10.6655C21.194 10.6655 20 11.8595 20 13.3324C20 14.8052 21.194 15.9992 22.6668 15.9992C24.1397 15.9992 25.3337 14.8052 25.3337 13.3324C25.332 11.8602 24.139 10.6672 22.6668 10.6655ZM22.6668 14.6658C21.9304 14.6658 21.3334 14.0688 21.3334 13.3324C21.3334 12.5959 21.9304 11.9989 22.6668 11.9989C23.4033 11.9989 24.0003 12.5959 24.0003 13.3324C23.9996 14.0685 23.403 14.6651 22.6668 14.6658Z" fill="#1371EF"/>
<path d="M28.6673 10.6655C27.1945 10.6655 26.0005 11.8595 26.0005 13.3324C26.0005 14.8052 27.1945 15.9992 28.6673 15.9992C30.1395 15.9975 31.3325 14.8045 31.3341 13.3324C31.3342 11.8595 30.1402 10.6655 28.6673 10.6655ZM28.6673 14.6658C27.9312 14.6651 27.3346 14.0685 27.3339 13.3324C27.3339 12.5959 27.9309 11.9989 28.6673 11.9989C29.4038 11.9989 30.0008 12.5959 30.0008 13.3324C30.0008 14.0688 29.4038 14.6658 28.6673 14.6658Z" fill="#1371EF"/>
</g>
<defs>
<clipPath id="clip0">
<rect width="40" height="40" fill="white"/>
</clipPath>
</defs>
</svg>
