<svg width="40" height="40" viewBox="0 0 40 40" fill="none" xmlns="http://www.w3.org/2000/svg">
<path d="M20.3326 17.0774C19.6382 17.0077 18.9396 17.1578 18.3324 17.5072C17.7252 17.8566 17.2392 18.3882 16.9407 19.0291C16.6423 19.6701 16.5462 20.3891 16.6654 21.0878C16.7846 21.7864 17.1135 22.4305 17.6069 22.9319C18.1003 23.4333 18.7341 23.7675 19.4216 23.8887C20.1091 24.0098 20.8167 23.9121 21.4474 23.6089C22.0781 23.3056 22.6012 22.8116 22.945 22.1946C23.2888 21.5776 23.4366 20.8676 23.368 20.162C23.2898 19.3709 22.9449 18.6317 22.3917 18.0695C21.8385 17.5074 21.111 17.1569 20.3326 17.0774V17.0774ZM28.4816 20.5C28.4794 20.8738 28.4524 21.2471 28.4007 21.6172L30.7914 23.5228C30.8955 23.6105 30.9657 23.7328 30.9894 23.8681C31.0131 24.0034 30.9889 24.1428 30.921 24.2617L28.6593 28.2383C28.5906 28.356 28.4832 28.4453 28.3561 28.4904C28.229 28.5355 28.0903 28.5336 27.9644 28.485L25.59 27.5134C25.4591 27.4604 25.3173 27.4413 25.1773 27.4577C25.0373 27.4741 24.9035 27.5255 24.7878 27.6074C24.4255 27.861 24.0447 28.0863 23.6488 28.2813C23.5243 28.3428 23.4167 28.4345 23.3353 28.5482C23.254 28.662 23.2014 28.7944 23.1824 28.9337L22.8265 31.5072C22.8031 31.6431 22.734 31.7666 22.631 31.8565C22.528 31.9463 22.3975 31.9971 22.2617 32H17.7383C17.6048 31.9977 17.476 31.9492 17.3733 31.8625C17.2705 31.7759 17.1999 31.6562 17.173 31.5233L16.8176 28.9536C16.7977 28.8127 16.7438 28.6791 16.6607 28.5645C16.5777 28.45 16.4681 28.358 16.3417 28.2969C15.9463 28.1029 15.5668 27.877 15.2069 27.6214C15.0916 27.5399 14.9583 27.4889 14.8188 27.4728C14.6793 27.4568 14.5381 27.4763 14.4078 27.5295L12.034 28.5006C11.9082 28.5492 11.7695 28.5512 11.6424 28.5062C11.5153 28.4612 11.4079 28.372 11.3391 28.2544L9.07743 24.2778C9.00943 24.159 8.98513 24.0195 9.00886 23.8842C9.03258 23.7489 9.10279 23.6265 9.20699 23.5389L11.2276 21.9268C11.3383 21.8375 11.4253 21.7215 11.4807 21.5893C11.5361 21.4572 11.5581 21.3131 11.5449 21.1701C11.5258 20.946 11.5142 20.7225 11.5142 20.4984C11.5142 20.2743 11.5253 20.054 11.5449 19.8347C11.5567 19.6926 11.5336 19.5497 11.4775 19.4189C11.4215 19.2882 11.3343 19.1736 11.2239 19.0856L9.20434 17.4735C9.10184 17.3854 9.03311 17.2634 9.01019 17.129C8.98728 16.9946 9.01164 16.8563 9.07902 16.7383L11.3407 12.7617C11.4094 12.644 11.5168 12.5547 11.6439 12.5096C11.771 12.4645 11.9097 12.4664 12.0356 12.515L14.4099 13.4866C14.5409 13.5396 14.6827 13.5587 14.8227 13.5423C14.9627 13.5259 15.0965 13.4745 15.2122 13.3926C15.5745 13.139 15.9553 12.9137 16.3512 12.7187C16.4757 12.6572 16.5833 12.5655 16.6647 12.4518C16.746 12.338 16.7986 12.2056 16.8176 12.0663L17.1735 9.49278C17.1969 9.35687 17.266 9.23342 17.369 9.14354C17.472 9.05366 17.6025 9.00292 17.7383 9H22.2617C22.3952 9.00235 22.524 9.05084 22.6267 9.13748C22.7295 9.22412 22.8001 9.34375 22.827 9.47666L23.1824 12.0464C23.2023 12.1873 23.2562 12.3209 23.3393 12.4355C23.4223 12.55 23.5319 12.642 23.6583 12.7031C24.0537 12.8971 24.4332 13.123 24.7931 13.3786C24.9084 13.4601 25.0417 13.5111 25.1812 13.5272C25.3207 13.5432 25.4619 13.5237 25.5922 13.4705L27.966 12.4994C28.0918 12.4508 28.2305 12.4488 28.3576 12.4938C28.4847 12.5388 28.5921 12.628 28.6608 12.7456L30.9226 16.7222C30.9906 16.841 31.0149 16.9805 30.9911 17.1158C30.9674 17.2511 30.8972 17.3735 30.793 17.4611L28.7724 19.0732C28.6612 19.1623 28.5737 19.2781 28.5179 19.4103C28.462 19.5424 28.4395 19.6867 28.4525 19.8299C28.4699 20.0524 28.4816 20.2759 28.4816 20.5Z" stroke="#1371EF" stroke-width="2" stroke-linecap="round" stroke-linejoin="round"/>
</svg>
