<svg width="40" height="40" viewBox="0 0 40 40" fill="none" xmlns="http://www.w3.org/2000/svg">
<path d="M15.8968 25.12H14.2841L16.3548 23.1023C16.7076 22.7587 16.7076 22.2015 16.3548 21.8578C16.0022 21.5142 15.4304 21.5142 15.0776 21.8578L11.4652 25.3779C10.8985 25.9301 11.2998 26.8802 12.1038 26.8802H13.7165L11.6458 28.8979C11.2932 29.2414 11.2932 29.7987 11.6458 30.1424C11.9986 30.486 12.5704 30.486 12.923 30.1424L16.5354 26.6223C16.7938 26.3707 16.8709 25.9922 16.7312 25.6633C16.5914 25.3346 16.2622 25.12 15.8968 25.12Z" fill="#1371EF"/>
<path d="M33.5531 10.6824H32.706V9.27063C32.706 8.80283 32.3268 8.42358 31.859 8.42358C31.3912 8.42358 31.0119 8.80283 31.0119 9.27063V10.6824H29.3176V9.27063C29.3176 8.80283 28.9384 8.42358 28.4706 8.42358C28.0028 8.42358 27.6235 8.80283 27.6235 9.27063V10.6824H26.7765C26.3087 10.6824 25.9294 11.0616 25.9294 11.5294V13.2237C25.9294 15.2689 27.3869 16.9802 29.3176 17.3737V29.6002C29.3176 30.3787 28.6844 31.0119 27.9059 31.0119H27.3414C26.5629 31.0119 25.9294 30.3787 25.9294 29.6002V23.953C25.9294 22.2404 24.5361 20.8471 22.8236 20.8471H22.5412V8.70593C22.5412 6.99338 21.148 5.6001 19.4354 5.6001H8.70593C6.99338 5.6001 5.6001 6.99338 5.6001 8.70593V33.5531C5.6001 34.0209 5.97935 34.4001 6.44714 34.4001H21.6942C22.162 34.4001 22.5412 34.0209 22.5412 33.5531V22.5412H22.8236C23.6021 22.5412 24.2355 23.1745 24.2355 23.953V29.6C24.2355 31.3127 25.6288 32.706 27.3414 32.706H27.9061C29.6186 32.706 31.0119 31.3127 31.0119 29.6V17.3737C32.9427 16.9802 34.4001 15.2689 34.4001 13.2235V11.5294C34.4001 11.0616 34.0209 10.6824 33.5531 10.6824ZM8.70593 7.29419H19.4354C20.2139 7.29419 20.8471 7.92766 20.8471 8.70593V17.459H7.29419V8.70593C7.29419 7.92744 7.92744 7.29419 8.70593 7.29419ZM20.8471 32.706H7.29419V19.1531H20.8471V32.706ZM32.706 13.2235C32.706 14.6249 31.5661 15.7646 30.1649 15.7646C28.7637 15.7646 27.6237 14.6247 27.6237 13.2235V12.3765H32.706V13.2235Z" fill="#1371EF"/>
</svg>
