<svg width="24" height="24" viewBox="0 0 24 24" fill="none" xmlns="http://www.w3.org/2000/svg">
<g clip-path="url(#clip0)">
<path d="M12 0C8.8174 0 5.76516 1.26428 3.51472 3.51472C1.26428 5.76516 0 8.8174 0 12C0 15.1826 1.26428 18.2348 3.51472 20.4853C5.76516 22.7357 8.8174 24 12 24C15.1826 24 18.2348 22.7357 20.4853 20.4853C22.7357 18.2348 24 15.1826 24 12C24 8.8174 22.7357 5.76516 20.4853 3.51472C18.2348 1.26428 15.1826 0 12 0V0ZM12 21.75C9.41414 21.75 6.93419 20.7228 5.10571 18.8943C3.27723 17.0658 2.25 14.5859 2.25 12C2.25 9.41414 3.27723 6.93419 5.10571 5.10571C6.93419 3.27723 9.41414 2.25 12 2.25C14.5859 2.25 17.0658 3.27723 18.8943 5.10571C20.7228 6.93419 21.75 9.41414 21.75 12C21.75 14.5859 20.7228 17.0658 18.8943 18.8943C17.0658 20.7228 14.5859 21.75 12 21.75Z" fill="#A7A7A7"/>
<path d="M15.75 6L12 9.75L8.25 6L6 8.25L9.75 12L6 15.75L8.25 18L12 14.25L15.75 18L18 15.75L14.25 12L18 8.25L15.75 6Z" fill="#A7A7A7"/>
</g>
<defs>
<clipPath id="clip0">
<rect width="24" height="24" fill="white"/>
</clipPath>
</defs>
</svg>
